# xmcd
#
# Track frame offsets: 
#        183
#        13048
#        35183
#        51583
#        77243
#        106348
#        127563
#        141435
#        176503
#        192300
#        225290
#
# Disc length: 3298 seconds
#
# Revision: 8
# Processed by: cddbd v1.5.2PL0 Copyright (c) Steve Scherf et al.
# Submitted via: ExactAudioCopy v1.3
#
DISCID=900ce00b
DTITLE=Muddy Waters - Chicago Blues - The Blues Collection 11
DYEAR=1995
DGENRE=Blues
TTITLE0=Baby, please don't go
TTITLE1=Soon forgotten
TTITLE2=Corinne, Corinna
TTITLE3=After hours
TTITLE4=Howlin' wolf
TTITLE5=Junior shuffle
TTITLE6=I'm your hoochie coochie man
TTITLE7=Floyd's guitar blues
TTITLE8=J. P.'s boogie
TTITLE9=Goin' down slow
TTITLE10=What's the matter with the mill?
EXTD=
EXTT0=
EXTT1=
EXTT2=
EXTT3=
EXTT4=
EXTT5=
EXTT6=
EXTT7=
EXTT8=
EXTT9=
EXTT10=
PLAYORDER=
